<svg width="57" height="28" viewBox="0 0 57 28" fill="none" xmlns="http://www.w3.org/2000/svg">
<g clip-path="url(#clip0_268_29)">
<path d="M28.1247 1.98059C31.4384 1.98059 34.1247 4.66688 34.1247 7.98059C34.1247 11.0411 31.8332 13.5664 28.8724 13.9345C28.8742 13.9488 28.8747 13.9647 28.8747 13.9806V21.4806H36.3747C37.5729 21.4806 38.5524 22.4173 38.6209 23.5984L38.6247 23.7306C38.6247 24.9732 37.6173 25.9806 36.3747 25.9806H19.8747C18.632 25.9806 17.6247 24.9732 17.6247 23.7306C17.6247 22.4879 18.632 21.4806 19.8747 21.4806H27.3747V13.9806L27.377 13.9345C24.4161 13.5664 22.1247 11.0411 22.1247 7.98059C22.1247 4.66688 24.811 1.98059 28.1247 1.98059ZM36.3747 22.9806H19.8747C19.4605 22.9806 19.1247 23.3164 19.1247 23.7306C19.1247 24.1448 19.4605 24.4806 19.8747 24.4806H36.3747C36.7889 24.4806 37.1247 24.1448 37.1247 23.7306C37.1247 23.3164 36.7889 22.9806 36.3747 22.9806ZM28.1247 3.48059C25.6394 3.48059 23.6247 5.49531 23.6247 7.98059C23.6247 10.4659 25.6394 12.4806 28.1247 12.4806C30.61 12.4806 32.6247 10.4659 32.6247 7.98059C32.6247 5.49531 30.61 3.48059 28.1247 3.48059Z" fill="#282828"/>
</g>
<defs>
<clipPath id="clip0_268_29">
<rect width="24" height="24" fill="white" transform="translate(16.1247 1.98059)"/>
</clipPath>
</defs>
</svg>
