<svg width="57" height="28" viewBox="0 0 57 28" fill="none" xmlns="http://www.w3.org/2000/svg">
<path d="M22.1386 10.6461C22.068 10.1598 21.9172 9.58091 21.7368 8.88833L21.196 6.81232L21.1865 6.77573C21.8967 6.09118 22.7079 5.5109 23.5955 5.05948L25.2278 6.29745C25.7873 6.72187 26.2578 7.0787 26.6743 7.32496C26.8924 7.4539 27.112 7.56282 27.3411 7.64073V10.6626C27.218 10.72 27.1 10.7921 26.9897 10.8787L25.0573 12.3972C24.9853 12.4539 24.9184 12.5152 24.8569 12.5806L22.1787 11.4209C22.1949 11.1677 22.177 10.911 22.1386 10.6461Z" fill="#008F8F"/>
<path d="M20.1698 12.1833C19.8748 12.4374 19.4594 12.7209 18.835 13.145L18.131 13.6232C18.2025 11.5858 18.8827 9.70355 19.9952 8.15302L20.2749 9.22661C20.4683 9.96936 20.5969 10.4674 20.6541 10.8614C20.7086 11.2372 20.6853 11.4438 20.624 11.6101C20.5631 11.775 20.4494 11.9423 20.1698 12.1833Z" fill="#008F8F"/>
<path d="M21.4258 18.8657C22.1203 18.8657 22.7059 18.8657 23.1842 18.9219C23.4365 18.9515 23.6775 18.9984 23.9073 19.0759L25.323 17.2235C25.2714 17.1235 25.2285 17.0179 25.1953 16.9074L24.4364 14.381C24.3988 14.2558 24.3749 14.1288 24.3643 14.0019L21.6377 12.8212C21.4954 12.9999 21.3307 13.163 21.1488 13.3197C20.7808 13.6368 20.293 13.968 19.7125 14.3623L18.2211 15.3752C18.3957 16.628 18.8022 17.8065 19.3956 18.8657H21.4258Z" fill="#008F8F"/>
<path d="M27.9165 12.0581C27.9706 12.0157 28.0316 11.9964 28.0911 11.9964C28.1506 11.9964 28.2116 12.0157 28.2657 12.0581L30.198 13.5766C30.2495 13.6171 30.2887 13.6745 30.3092 13.7426C30.329 13.8086 30.3299 13.8805 30.3092 13.9494L29.5502 16.4759C29.5294 16.5454 29.4901 16.6006 29.4425 16.6391C29.3899 16.6816 29.328 16.7036 29.2644 16.7036H26.9178C26.8542 16.7036 26.7923 16.6816 26.7397 16.6391C26.6921 16.6006 26.6528 16.5454 26.6319 16.4759L25.873 13.9494C25.8523 13.8805 25.8531 13.8086 25.8729 13.7426C25.8934 13.6745 25.9327 13.6171 25.9842 13.5766L27.9165 12.0581Z" fill="#008F8F"/>
<path d="M29.5005 7.35624C29.9222 7.11926 30.4001 6.77294 30.9683 6.36109L32.7091 5.09964C33.5738 5.5491 34.3646 6.12144 35.0584 6.79356L34.5127 8.88842C34.3323 9.581 34.1815 10.1599 34.111 10.6462C34.0728 10.9097 34.0548 11.1651 34.0705 11.4169L31.3282 12.5838C31.2659 12.5172 31.198 12.4548 31.1248 12.3972L29.1925 10.8787C29.0822 10.7921 28.9642 10.72 28.8411 10.6626V7.65274C29.0668 7.58016 29.2842 7.47783 29.5005 7.35624Z" fill="#008F8F"/>
<path d="M27.4377 6.03375C27.1045 5.83674 26.7028 5.53352 26.1003 5.07656L25.2177 4.4072C26.1342 4.12975 27.1063 3.98059 28.1132 3.98059C29.1458 3.98059 30.1418 4.13745 31.0787 4.42867L30.1227 5.12146C29.5107 5.56494 29.1028 5.85911 28.7656 6.04862C28.4451 6.22873 28.2586 6.27252 28.0994 6.27075C27.9402 6.26899 27.7545 6.22102 27.4377 6.03375Z" fill="#008F8F"/>
<path d="M35.1007 13.3198C35.4687 13.6369 35.9565 13.9681 36.537 14.3624L38.0073 15.361C37.8338 16.6191 37.4265 17.8025 36.8308 18.8657H34.9726C34.278 18.8657 33.6925 18.8657 33.2141 18.9219C32.9513 18.9527 32.7008 19.0023 32.4624 19.0858L30.8728 17.1965C30.9183 17.1046 30.9566 17.008 30.9868 16.9074L31.7458 14.381C31.783 14.2571 31.8067 14.1313 31.8175 14.0057L34.6091 12.8179C34.752 12.998 34.9177 13.1621 35.1007 13.3198Z" fill="#008F8F"/>
<path d="M30.9331 20.6071C30.7314 21.0533 30.5471 21.622 30.3268 22.3019L29.8305 23.8334C29.2726 23.9302 28.6988 23.9806 28.1132 23.9806C27.591 23.9806 27.0781 23.9405 26.5775 23.8631L26.0716 22.3019C25.8513 21.622 25.667 21.0533 25.4652 20.6071C25.3622 20.3793 25.2476 20.1667 25.1096 19.9729L26.5 18.1537C26.6345 18.1864 26.7745 18.2036 26.9178 18.2036H29.2644C29.4181 18.2036 29.5681 18.1837 29.7116 18.1463L31.2704 19.9989C31.1406 20.1856 31.0316 20.3894 30.9331 20.6071Z" fill="#008F8F"/>
<path d="M24.6574 22.8038C24.421 22.0741 24.2617 21.5859 24.0985 21.2252C23.9427 20.8807 23.8144 20.7259 23.6801 20.6263C23.5476 20.5281 23.3694 20.4539 23.0093 20.4116C22.6287 20.3669 22.1318 20.3657 21.3829 20.3657H20.4257C21.5836 21.7616 23.1136 22.8369 24.8634 23.4394L24.6574 22.8038Z" fill="#008F8F"/>
<path d="M33.3891 20.4116C33.7697 20.3669 34.2666 20.3657 35.0155 20.3657H35.8008C34.6859 21.7096 33.2261 22.7565 31.5574 23.3702L31.741 22.8038C31.9774 22.0741 32.1367 21.5859 32.2999 21.2252C32.4557 20.8807 32.584 20.7259 32.7183 20.6263C32.8508 20.5281 33.029 20.4539 33.3891 20.4116Z" fill="#008F8F"/>
<path d="M35.5954 10.8615C35.6526 10.4675 35.7812 9.96946 35.9747 9.22671L36.2482 8.1767C37.3477 9.71864 38.0208 11.5864 38.0949 13.6072L37.4146 13.1451C36.7901 12.721 36.3748 12.4375 36.0798 12.1834C35.8001 11.9424 35.6864 11.7751 35.6256 11.6101C35.5642 11.4439 35.5409 11.2373 35.5954 10.8615Z" fill="#008F8F"/>
</svg>
