<svg width="16" height="16" viewBox="0 0 16 16" fill="none" xmlns="http://www.w3.org/2000/svg">
<path d="M5.83756 11.3333C4.32368 11.3333 3.04243 10.809 1.99382 9.76042C0.945204 8.71181 0.420898 7.43056 0.420898 5.91667C0.420898 4.40278 0.945204 3.12153 1.99382 2.07292C3.04243 1.02431 4.32368 0.5 5.83756 0.5C7.35145 0.5 8.6327 1.02431 9.68132 2.07292C10.7299 3.12153 11.2542 4.40278 11.2542 5.91667C11.2542 6.52778 11.157 7.10417 10.9626 7.64583C10.7681 8.1875 10.5042 8.66667 10.1709 9.08333L14.8376 13.75C14.9903 13.9028 15.0667 14.0972 15.0667 14.3333C15.0667 14.5694 14.9903 14.7639 14.8376 14.9167C14.6848 15.0694 14.4903 15.1458 14.2542 15.1458C14.0181 15.1458 13.8237 15.0694 13.6709 14.9167L9.00423 10.25C8.58757 10.5833 8.1084 10.8472 7.56673 11.0417C7.02506 11.2361 6.44868 11.3333 5.83756 11.3333ZM5.83756 9.66667C6.87923 9.66667 7.76465 9.30208 8.49381 8.57292C9.22298 7.84375 9.58756 6.95833 9.58756 5.91667C9.58756 4.875 9.22298 3.98958 8.49381 3.26042C7.76465 2.53125 6.87923 2.16667 5.83756 2.16667C4.7959 2.16667 3.91048 2.53125 3.18131 3.26042C2.45215 3.98958 2.08757 4.875 2.08757 5.91667C2.08757 6.95833 2.45215 7.84375 3.18131 8.57292C3.91048 9.30208 4.7959 9.66667 5.83756 9.66667Z" fill="#828282"/>
</svg>
