<svg width="57" height="28" viewBox="0 0 57 28" fill="none" xmlns="http://www.w3.org/2000/svg">
<path fill-rule="evenodd" clip-rule="evenodd" d="M23.5599 3.23059H32.6894C33.2593 3.23057 33.7433 3.23056 34.1432 3.27191C34.569 3.31593 34.9625 3.41153 35.3343 3.6413C35.7061 3.87107 35.9676 4.1803 36.1974 4.54147C36.4132 4.88069 36.6296 5.31356 36.8845 5.82339L36.901 5.85633C36.9107 5.87577 36.9196 5.89563 36.9276 5.91585L38.3312 9.46399C38.4982 9.88618 38.6833 10.4129 38.7374 10.9519C38.7928 11.5032 38.7168 12.1347 38.2848 12.6825C37.9315 13.1306 37.4402 13.4669 36.8747 13.6269V23.2306H38.1247C38.5389 23.2306 38.8747 23.5664 38.8747 23.9806C38.8747 24.3948 38.5389 24.7306 38.1247 24.7306H18.1247C17.7105 24.7306 17.3747 24.3948 17.3747 23.9806C17.3747 23.5664 17.7105 23.2306 18.1247 23.2306H19.3747V13.627C18.8091 13.4669 18.3178 13.1306 17.9644 12.6825C17.5325 12.1347 17.4565 11.5032 17.5118 10.9519C17.566 10.4129 17.7511 9.88618 17.9181 9.46399L19.3217 5.91585C19.3297 5.89563 19.3385 5.87577 19.3483 5.85633L19.3648 5.82334C19.6196 5.31354 19.8361 4.88068 20.0519 4.54147C20.2817 4.1803 20.5432 3.87107 20.915 3.6413C21.2867 3.41153 21.6803 3.31593 22.1061 3.27191C22.506 3.23056 22.99 3.23057 23.5599 3.23059ZM34.1246 12.8681C34.4606 13.2239 34.8905 13.4902 35.3747 13.6271V23.2306H31.3747V20.4484C31.3747 20.0086 31.3747 19.6292 31.3465 19.318C31.3167 18.9888 31.2506 18.6628 31.0733 18.3556C30.8758 18.0136 30.5917 17.7295 30.2497 17.532C29.9425 17.3547 29.6165 17.2886 29.2874 17.2588C28.9761 17.2306 28.5967 17.2306 28.1569 17.2306H28.0925C27.6527 17.2306 27.2733 17.2306 26.962 17.2588C26.6329 17.2886 26.3069 17.3547 25.9997 17.532C25.6576 17.7295 25.3736 18.0136 25.1761 18.3556C24.9987 18.6628 24.9327 18.9888 24.9028 19.318C24.8746 19.6292 24.8746 20.0086 24.8747 20.4483V23.2306H20.8747V13.6271C21.3588 13.4901 21.7886 13.2239 22.1246 12.8681C22.626 13.3992 23.3366 13.7306 24.1246 13.7306C24.9126 13.7306 25.6232 13.3992 26.1246 12.8681C26.626 13.3992 27.3366 13.7306 28.1246 13.7306C28.9126 13.7306 29.6232 13.3992 30.1246 12.8681C30.626 13.3992 31.3366 13.7306 32.1246 13.7306C32.9126 13.7306 33.6232 13.3992 34.1246 12.8681ZM26.3747 23.2306H29.8747V20.4806C29.8747 19.9995 29.874 19.6888 29.8526 19.4533C29.8322 19.2282 29.7978 19.1465 29.7742 19.1056C29.7084 18.9916 29.6137 18.8969 29.4997 18.8311C29.4588 18.8075 29.3771 18.7731 29.152 18.7527C28.9165 18.7313 28.6058 18.7306 28.1247 18.7306C27.6436 18.7306 27.3329 18.7313 27.0974 18.7527C26.8723 18.7731 26.7906 18.8075 26.7497 18.8311C26.6357 18.8969 26.541 18.9916 26.4752 19.1056C26.4516 19.1465 26.4172 19.2282 26.3968 19.4533C26.3754 19.6888 26.3747 19.9995 26.3747 20.4806V23.2306ZM22.8746 10.9806C22.8746 11.671 23.4342 12.2306 24.1246 12.2306C24.8149 12.2306 25.3746 11.671 25.3746 10.9806C25.3746 10.5664 25.7104 10.2306 26.1246 10.2306C26.5388 10.2306 26.8746 10.5664 26.8746 10.9806C26.8746 11.671 27.4343 12.2306 28.1246 12.2306C28.815 12.2306 29.3746 11.671 29.3746 10.9806C29.3746 10.5664 29.7104 10.2306 30.1246 10.2306C30.5388 10.2306 30.8746 10.5664 30.8746 10.9806C30.8746 11.671 31.4343 12.2306 32.1246 12.2306C32.815 12.2306 33.3746 11.671 33.3746 10.9806C33.3746 10.5664 33.7104 10.2306 34.1246 10.2306C34.5388 10.2306 34.8746 10.5664 34.8746 10.9806C34.8746 11.671 35.4343 12.2306 36.1246 12.2306C36.5226 12.2306 36.8769 12.0455 37.107 11.7536C37.2209 11.6092 37.276 11.4115 37.2449 11.1017C37.2126 10.7796 37.0937 10.4133 36.9364 10.0158L35.5448 6.49798C35.2771 5.96263 35.0982 5.60808 34.9318 5.34671C34.7719 5.09529 34.6572 4.98621 34.5457 4.91728C34.4342 4.84835 34.2853 4.7946 33.9889 4.76395C33.6752 4.73152 33.2693 4.73059 32.6525 4.73059H23.5968C22.98 4.73059 22.5741 4.73152 22.2604 4.76395C21.9639 4.7946 21.8151 4.84835 21.7036 4.91728C21.592 4.98621 21.4774 5.09529 21.3174 5.34671C21.1511 5.60808 20.9722 5.96263 20.7045 6.49798L19.3129 10.0158C19.1556 10.4133 19.0367 10.7796 19.0043 11.1017C18.9732 11.4115 19.0283 11.6092 19.1423 11.7537C19.3724 12.0455 19.7266 12.2306 20.1246 12.2306C20.8149 12.2306 21.3746 11.671 21.3746 10.9806C21.3746 10.5664 21.7104 10.2306 22.1246 10.2306C22.5388 10.2306 22.8746 10.5664 22.8746 10.9806Z" fill="#282828"/>
</svg>
